# Blender 5.2.1 LTS
# www.blender.org
mtllib Untitled.mtl
o part_0
v 0.189000 0.231963 0.027789
v 0.189000 0.272118 0.114938
v -0.189000 0.231963 0.027789
v -0.189000 0.272119 0.114938
v 0.189000 0.297084 0.114938
v 0.189000 0.297084 0.002500
v -0.189000 0.297084 0.114938
v -0.189000 0.297084 0.002500
v 0.189000 0.272118 0.114938
v 0.189000 0.297084 0.114938
v -0.189000 0.272119 0.114938
v -0.189000 0.297084 0.114938
v 0.189000 0.231963 0.027789
v 0.189000 0.297084 0.002500
v 0.189000 0.272118 0.114938
v 0.189000 0.297084 0.114938
v 0.189000 -0.148067 0.181105
v 0.189000 -0.106554 0.238545
v -0.189000 -0.148067 0.181105
v -0.189000 -0.106554 0.238545
v 0.189000 -0.081589 0.159492
v -0.189000 -0.081589 0.159492
v 0.189000 -0.081589 0.238545
v -0.189000 -0.081589 0.238545
v 0.189000 -0.106554 0.238545
v 0.189000 -0.081589 0.238545
v -0.189000 -0.106554 0.238545
v -0.189000 -0.081589 0.238545
v 0.189000 -0.148067 0.181105
v 0.189000 -0.081589 0.159492
v 0.189000 -0.106554 0.238545
v 0.189000 -0.081589 0.238545
v 0.189000 0.042144 0.119301
v 0.189000 0.083657 0.176742
v -0.189000 0.042144 0.119301
v -0.189000 0.083657 0.176742
v 0.189000 0.108623 0.097689
v -0.189000 0.108623 0.097689
v 0.189000 0.108623 0.176742
v -0.189000 0.108623 0.176742
v 0.189000 0.083657 0.176742
v 0.189000 0.108623 0.176742
v -0.189000 0.083657 0.176742
v -0.189000 0.108623 0.176742
v 0.189000 0.042144 0.119301
v 0.189000 0.108623 0.097689
v 0.189000 0.083657 0.176742
v 0.189000 0.108623 0.176742
v -0.189000 -0.081589 0.238545
v -0.189000 -0.081589 0.159492
v -0.189000 -0.106554 0.238545
v -0.189000 -0.148067 0.181105
v -0.189000 0.108623 0.176742
v -0.189000 0.108623 0.097689
v -0.189000 0.083657 0.176742
v -0.189000 0.042144 0.119301
v -0.189000 0.297084 0.114938
v -0.189000 0.297084 0.002500
v -0.189000 0.272119 0.114938
v -0.189000 0.231963 0.027789
v 0.189000 0.231963 0.027789
v -0.189000 0.231963 0.027789
v 0.189000 0.297084 0.002500
v -0.189000 0.297084 0.002500
v 0.189000 0.042144 0.119301
v -0.189000 0.042144 0.119301
v 0.189000 0.108623 0.097689
v -0.189000 0.108623 0.097689
v 0.189000 -0.148067 0.181105
v -0.189000 -0.148067 0.181105
v 0.189000 -0.081589 0.159492
v -0.189000 -0.081589 0.159492
v -0.189000 0.272119 -0.114938
v 0.189000 0.272118 -0.114938
v -0.189000 0.231963 -0.027789
v 0.189000 0.231963 -0.027789
v -0.189000 0.297084 -0.002500
v 0.189000 0.297084 -0.002500
v -0.189000 0.297084 -0.114938
v 0.189000 0.297084 -0.114938
v -0.189000 0.297084 -0.114938
v 0.189000 0.297084 -0.114938
v -0.189000 0.272119 -0.114938
v 0.189000 0.272118 -0.114938
v 0.189000 0.297084 -0.114938
v 0.189000 0.297084 -0.002500
v 0.189000 0.272118 -0.114938
v 0.189000 0.231963 -0.027789
v -0.189000 -0.106554 -0.238545
v 0.189000 -0.106554 -0.238545
v -0.189000 -0.148067 -0.181105
v 0.189000 -0.148067 -0.181105
v -0.189000 -0.081589 -0.238545
v -0.189000 -0.081589 -0.159492
v 0.189000 -0.081589 -0.238545
v 0.189000 -0.081589 -0.159492
v -0.189000 -0.081589 -0.238545
v 0.189000 -0.081589 -0.238545
v -0.189000 -0.106554 -0.238545
v 0.189000 -0.106554 -0.238545
v 0.189000 -0.081589 -0.238545
v 0.189000 -0.081589 -0.159492
v 0.189000 -0.106554 -0.238545
v 0.189000 -0.148067 -0.181105
v -0.189000 0.083657 -0.176742
v 0.189000 0.083657 -0.176742
v -0.189000 0.042144 -0.119301
v 0.189000 0.042144 -0.119301
v -0.189000 0.108623 -0.176742
v -0.189000 0.108623 -0.097689
v 0.189000 0.108623 -0.176742
v 0.189000 0.108623 -0.097689
v -0.189000 0.108623 -0.176742
v 0.189000 0.108623 -0.176742
v -0.189000 0.083657 -0.176742
v 0.189000 0.083657 -0.176742
v 0.189000 0.108623 -0.176742
v 0.189000 0.108623 -0.097689
v 0.189000 0.083657 -0.176742
v 0.189000 0.042144 -0.119301
v -0.189000 -0.148067 -0.181105
v -0.189000 -0.081589 -0.159492
v -0.189000 -0.106554 -0.238545
v -0.189000 -0.081589 -0.238545
v -0.189000 0.042144 -0.119301
v -0.189000 0.108623 -0.097689
v -0.189000 0.083657 -0.176742
v -0.189000 0.108623 -0.176742
v -0.189000 0.231963 -0.027789
v -0.189000 0.297084 -0.002500
v -0.189000 0.272119 -0.114938
v -0.189000 0.297084 -0.114938
v -0.189000 0.297084 -0.002500
v -0.189000 0.231963 -0.027789
v 0.189000 0.297084 -0.002500
v 0.189000 0.231963 -0.027789
v -0.189000 0.108623 -0.097689
v -0.189000 0.042144 -0.119301
v 0.189000 0.108623 -0.097689
v 0.189000 0.042144 -0.119301
v -0.189000 -0.081589 -0.159492
v -0.189000 -0.148067 -0.181105
v 0.189000 -0.081589 -0.159492
v 0.189000 -0.148067 -0.181105
v 0.189000 0.297084 0.068079
v 0.189000 -0.297084 0.261137
v 0.225000 0.297084 0.068079
v 0.225000 -0.297084 0.261137
v 0.225000 0.297084 0.030226
v 0.225000 0.297084 0.068079
v 0.225000 -0.297084 0.223284
v 0.225000 -0.297084 0.261137
v 0.225000 0.297084 0.030226
v 0.225000 -0.297084 0.223284
v 0.189000 0.297084 0.030226
v 0.189000 -0.297084 0.223284
v 0.189000 0.297084 0.030226
v 0.189000 -0.297084 0.223284
v 0.189000 0.297084 0.068079
v 0.189000 -0.297084 0.261137
v 0.189000 -0.297084 0.223284
v 0.225000 -0.297084 0.223284
v 0.189000 -0.297084 0.261137
v 0.225000 -0.297084 0.261137
v 0.225000 0.297084 0.030226
v 0.189000 0.297084 0.002500
v 0.225000 0.297084 0.068079
v 0.189000 0.297084 0.102704
v 0.189000 0.297084 0.102704
v 0.189000 0.272118 0.112394
v 0.225000 0.297084 0.068079
v 0.225000 0.272118 0.076191
v 0.189000 0.272118 0.112394
v 0.189000 0.272119 0.012194
v 0.225000 0.272118 0.076191
v 0.225000 0.272119 0.038338
v 0.225000 0.297084 0.030226
v 0.225000 0.272119 0.038338
v 0.189000 0.297084 0.002500
v 0.189000 0.272119 0.012194
v 0.185000 0.167916 -0.092500
v 0.185000 0.192916 -0.092500
v 0.185000 0.167916 0.092500
v 0.185000 0.192916 0.092500
v 0.225000 -0.297084 -0.261137
v 0.189000 -0.297084 -0.261137
v 0.225000 0.297084 -0.068079
v 0.189000 0.297084 -0.068079
v 0.225000 -0.297084 -0.261137
v 0.225000 0.297084 -0.068079
v 0.225000 -0.297084 -0.223284
v 0.225000 0.297084 -0.030226
v 0.189000 -0.297084 -0.223284
v 0.225000 -0.297084 -0.223284
v 0.189000 0.297084 -0.030226
v 0.225000 0.297084 -0.030226
v 0.189000 -0.297084 -0.261137
v 0.189000 -0.297084 -0.223284
v 0.189000 0.297084 -0.068079
v 0.189000 0.297084 -0.030226
v 0.225000 -0.297084 -0.261137
v 0.225000 -0.297084 -0.223284
v 0.189000 -0.297084 -0.261137
v 0.189000 -0.297084 -0.223284
v 0.189000 0.297084 -0.102704
v 0.189000 0.297084 -0.002500
v 0.225000 0.297084 -0.068079
v 0.225000 0.297084 -0.030226
v 0.225000 0.272118 -0.076191
v 0.189000 0.272118 -0.112394
v 0.225000 0.297084 -0.068079
v 0.189000 0.297084 -0.102704
v 0.225000 0.272119 -0.038338
v 0.189000 0.272119 -0.012194
v 0.225000 0.272118 -0.076191
v 0.189000 0.272118 -0.112394
v 0.189000 0.272119 -0.012194
v 0.225000 0.272119 -0.038338
v 0.189000 0.297084 -0.002500
v 0.225000 0.297084 -0.030226
v 0.185000 0.167916 0.092500
v 0.185000 0.192916 0.092500
v 0.185000 0.167916 -0.092500
v 0.185000 0.192916 -0.092500
v -0.225000 -0.297084 0.261137
v -0.189000 -0.297084 0.261137
v -0.225000 0.297084 0.068079
v -0.189000 0.297084 0.068079
v -0.225000 -0.297084 0.261137
v -0.225000 0.297084 0.068079
v -0.225000 -0.297084 0.223284
v -0.225000 0.297084 0.030226
v -0.189000 -0.297084 0.223284
v -0.225000 -0.297084 0.223284
v -0.189000 0.297084 0.030226
v -0.225000 0.297084 0.030226
v -0.189000 -0.297084 0.261137
v -0.189000 -0.297084 0.223284
v -0.189000 0.297084 0.068079
v -0.189000 0.297084 0.030226
v -0.225000 -0.297084 0.261137
v -0.225000 -0.297084 0.223284
v -0.189000 -0.297084 0.261137
v -0.189000 -0.297084 0.223284
v -0.189000 0.297084 0.102704
v -0.189000 0.297084 0.002500
v -0.225000 0.297084 0.068079
v -0.225000 0.297084 0.030226
v -0.225000 0.272118 0.076191
v -0.189000 0.272118 0.112394
v -0.225000 0.297084 0.068079
v -0.189000 0.297084 0.102704
v -0.225000 0.272119 0.038338
v -0.189000 0.272119 0.012194
v -0.225000 0.272118 0.076191
v -0.189000 0.272118 0.112394
v -0.189000 0.272119 0.012194
v -0.225000 0.272119 0.038338
v -0.189000 0.297084 0.002500
v -0.225000 0.297084 0.030226
v -0.185000 0.192916 0.092500
v -0.185000 0.192916 -0.092500
v -0.185000 0.167916 0.092500
v -0.185000 0.167916 -0.092500
v -0.189000 0.297084 -0.068079
v -0.189000 -0.297084 -0.261137
v -0.225000 0.297084 -0.068079
v -0.225000 -0.297084 -0.261137
v -0.225000 0.297084 -0.030226
v -0.225000 0.297084 -0.068079
v -0.225000 -0.297084 -0.223284
v -0.225000 -0.297084 -0.261137
v -0.225000 0.297084 -0.030226
v -0.225000 -0.297084 -0.223284
v -0.189000 0.297084 -0.030226
v -0.189000 -0.297084 -0.223284
v -0.189000 0.297084 -0.030226
v -0.189000 -0.297084 -0.223284
v -0.189000 0.297084 -0.068079
v -0.189000 -0.297084 -0.261137
v -0.189000 -0.297084 -0.223284
v -0.225000 -0.297084 -0.223284
v -0.189000 -0.297084 -0.261137
v -0.225000 -0.297084 -0.261137
v -0.225000 0.297084 -0.030226
v -0.189000 0.297084 -0.002500
v -0.225000 0.297084 -0.068079
v -0.189000 0.297084 -0.102704
v -0.189000 0.297084 -0.102704
v -0.189000 0.272118 -0.112394
v -0.225000 0.297084 -0.068079
v -0.225000 0.272118 -0.076191
v -0.189000 0.272118 -0.112394
v -0.189000 0.272119 -0.012194
v -0.225000 0.272118 -0.076191
v -0.225000 0.272119 -0.038338
v -0.225000 0.297084 -0.030226
v -0.225000 0.272119 -0.038338
v -0.189000 0.297084 -0.002500
v -0.189000 0.272119 -0.012194
v -0.185000 0.192916 -0.092500
v -0.185000 0.192916 0.092500
v -0.185000 0.167916 -0.092500
v -0.185000 0.167916 0.092500
vn -0.0000 -0.9082 0.4185
vn -0.0000 1.0000 -0.0000
vn -0.0000 -0.0000 1.0000
vn 1.0000 -0.0000 -0.0000
vn -0.0000 -0.8105 0.5858
vn -1.0000 -0.0000 -0.0000
vn -0.0000 -0.3620 -0.9322
vn -0.0000 -0.3092 -0.9510
vn -0.0000 -0.9082 -0.4185
vn -0.0000 -0.0000 -1.0000
vn -0.0000 -0.8105 -0.5858
vn -0.0000 -0.3620 0.9322
vn -0.0000 -0.3092 0.9510
vn -0.0000 0.3090 0.9511
vn -0.0000 -0.3090 -0.9511
vn -0.0000 -1.0000 -0.0000
vn 0.6676 0.2694 0.6941
vn 0.6797 0.2464 0.6909
vn 0.6797 0.2463 0.6909
vn 0.6912 0.2233 0.6873
vn 0.5909 -0.2493 -0.7673
vn 0.5761 -0.2745 -0.7699
vn 0.5606 -0.2997 -0.7719
vn -0.0000 0.3090 -0.9511
vn -0.0000 -0.3090 0.9511
vn 0.6912 0.2233 -0.6873
vn 0.6797 0.2464 -0.6909
vn 0.6797 0.2463 -0.6909
vn 0.6676 0.2694 -0.6941
vn 0.5606 -0.2997 0.7719
vn 0.5761 -0.2745 0.7699
vn 0.5909 -0.2493 0.7673
vn -0.6912 0.2233 0.6873
vn -0.6797 0.2464 0.6909
vn -0.6797 0.2463 0.6909
vn -0.6676 0.2694 0.6941
vn -0.5606 -0.2997 -0.7719
vn -0.5761 -0.2745 -0.7699
vn -0.5760 -0.2746 -0.7699
vn -0.5909 -0.2493 -0.7673
vn -0.6676 0.2694 -0.6941
vn -0.6797 0.2464 -0.6909
vn -0.6797 0.2463 -0.6909
vn -0.6912 0.2233 -0.6873
vn -0.5909 -0.2493 0.7673
vn -0.5761 -0.2745 0.7699
vn -0.5606 -0.2997 0.7719
vt 0.985663 0.995020
vt 0.985663 0.768713
vt 0.014337 0.995020
vt 0.014337 0.768713
vt 0.651846 0.325444
vt 0.651846 0.127956
vt 0.003820 0.325444
vt 0.003820 0.127956
vt 0.651846 0.544208
vt 0.651846 0.474886
vt 0.003820 0.544208
vt 0.003820 0.474886
vt 0.727893 0.549124
vt 0.651846 0.625749
vt 0.003820 0.625749
vt 0.651846 0.320911
vt 0.003820 0.320911
vt 0.651846 0.475621
vt 0.003820 0.475621
vt 0.003820 0.644051
vt 0.651846 0.644051
vt 0.993147 0.650846
vt 0.005570 0.650843
vt 0.993147 0.701841
vt 0.005570 0.701838
vt 0.993147 0.760571
vt 0.993147 0.708274
vt 0.005570 0.760568
vt 0.005570 0.708271
vt 0.993147 0.701838
vt 0.005570 0.701841
vt 0.993147 0.650843
vt 0.005570 0.650846
vt 0.993147 0.652365
vt 0.005570 0.652364
vt 0.993147 0.676029
vt 0.005570 0.676027
vt 0.914062 0.586403
vt 0.859375 0.586403
vt 0.914062 0.641029
vt 0.859375 0.641029
vt 0.911170 0.339711
vt 0.762189 0.224097
vt 0.911170 0.497552
vt 0.762189 0.641933
vt 0.765625 0.133788
vt 0.765625 0.211825
vt 0.914062 0.133788
vt 0.914062 0.211825
vt 0.998482 0.127559
vt 0.924812 0.127559
vt 0.998484 0.638496
vt 0.924814 0.638497
s 0
usemtl part_0_0
f 1/1/1 2/2/1 3/3/1
f 3/3/1 2/2/1 4/4/1
f 5/5/2 6/6/2 7/7/2
f 7/7/2 6/6/2 8/8/2
f 9/9/3 10/10/3 11/11/3
f 11/11/3 10/10/3 12/12/3
f 13/13/4 14/13/4 15/13/4
f 15/13/4 14/13/4 16/13/4
f 17/14/5 18/10/5 19/15/5
f 19/15/5 18/10/5 20/12/5
f 21/16/2 22/17/2 23/18/2
f 23/18/2 22/17/2 24/19/2
f 25/9/3 26/10/3 27/11/3
f 27/11/3 26/10/3 28/12/3
f 29/13/4 30/13/4 31/13/4
f 31/13/4 30/13/4 32/13/4
f 33/14/5 34/10/5 35/15/5
f 35/15/5 34/10/5 36/12/5
f 37/16/2 38/17/2 39/18/2
f 39/18/2 38/17/2 40/19/2
f 41/9/3 42/10/3 43/11/3
f 43/11/3 42/10/3 44/12/3
f 45/13/4 46/13/4 47/13/4
f 47/13/4 46/13/4 48/13/4
f 49/13/6 50/13/6 51/13/6
f 51/13/6 50/13/6 52/13/6
f 53/13/6 54/13/6 55/13/6
f 55/13/6 54/13/6 56/13/6
f 57/13/6 58/13/6 59/13/6
f 59/13/6 58/13/6 60/13/6
f 61/10/7 62/12/7 63/14/7
f 63/14/7 62/12/7 64/15/7
f 65/10/8 66/12/8 67/14/8
f 67/14/8 66/12/8 68/15/8
f 69/10/8 70/12/8 71/14/8
f 71/14/8 70/12/8 72/15/8
f 73/20/9 74/21/9 75/12/9
f 75/12/9 74/21/9 76/10/9
f 77/8/2 78/6/2 79/7/2
f 79/7/2 78/6/2 80/5/2
f 81/12/10 82/10/10 83/11/10
f 83/11/10 82/10/10 84/9/10
f 85/13/4 86/13/4 87/13/4
f 87/13/4 86/13/4 88/13/4
f 89/12/11 90/10/11 91/15/11
f 91/15/11 90/10/11 92/14/11
f 93/19/2 94/17/2 95/18/2
f 95/18/2 94/17/2 96/16/2
f 97/12/10 98/10/10 99/11/10
f 99/11/10 98/10/10 100/9/10
f 101/13/4 102/13/4 103/13/4
f 103/13/4 102/13/4 104/13/4
f 105/12/11 106/10/11 107/15/11
f 107/15/11 106/10/11 108/14/11
f 109/19/2 110/17/2 111/18/2
f 111/18/2 110/17/2 112/16/2
f 113/12/10 114/10/10 115/11/10
f 115/11/10 114/10/10 116/9/10
f 117/13/4 118/13/4 119/13/4
f 119/13/4 118/13/4 120/13/4
f 121/13/6 122/13/6 123/13/6
f 123/13/6 122/13/6 124/13/6
f 125/13/6 126/13/6 127/13/6
f 127/13/6 126/13/6 128/13/6
f 129/13/6 130/13/6 131/13/6
f 131/13/6 130/13/6 132/13/6
f 133/15/12 134/12/12 135/14/12
f 135/14/12 134/12/12 136/10/12
f 137/15/13 138/12/13 139/14/13
f 139/14/13 138/12/13 140/10/13
f 141/15/13 142/12/13 143/14/13
f 143/14/13 142/12/13 144/10/13
f 145/22/14 146/23/14 147/24/14
f 147/24/14 146/23/14 148/25/14
f 149/26/4 150/27/4 151/28/4
f 151/28/4 150/27/4 152/29/4
f 153/30/15 154/31/15 155/32/15
f 155/32/15 154/31/15 156/33/15
f 157/34/6 158/35/6 159/36/6
f 159/36/6 158/35/6 160/37/6
f 161/38/16 162/39/16 163/40/16
f 163/40/16 162/39/16 164/41/16
f 165/42/2 166/43/2 167/44/2
f 167/44/2 166/43/2 168/45/2
s 1
f 169/46/17 170/47/18 171/48/19
f 171/48/19 170/47/18 172/49/20
s 0
f 173/45/16 174/43/16 175/44/16
f 175/44/16 174/43/16 176/42/16
s 1
f 177/46/21 178/47/22 179/48/22
f 179/48/22 178/47/22 180/49/23
s 0
f 181/50/4 182/51/4 183/52/4
f 183/52/4 182/51/4 184/53/4
f 185/25/24 186/23/24 187/24/24
f 187/24/24 186/23/24 188/22/24
f 189/29/4 190/27/4 191/28/4
f 191/28/4 190/27/4 192/26/4
f 193/33/25 194/31/25 195/32/25
f 195/32/25 194/31/25 196/30/25
f 197/37/6 198/35/6 199/36/6
f 199/36/6 198/35/6 200/34/6
f 201/41/16 202/39/16 203/40/16
f 203/40/16 202/39/16 204/38/16
f 205/45/2 206/43/2 207/44/2
f 207/44/2 206/43/2 208/42/2
s 1
f 209/49/26 210/47/27 211/48/28
f 211/48/28 210/47/27 212/46/29
s 0
f 213/42/16 214/43/16 215/44/16
f 215/44/16 214/43/16 216/45/16
s 1
f 217/49/30 218/47/31 219/48/31
f 219/48/31 218/47/31 220/46/32
s 0
f 221/50/6 222/51/6 223/52/6
f 223/52/6 222/51/6 224/53/6
f 225/25/14 226/23/14 227/24/14
f 227/24/14 226/23/14 228/22/14
f 229/29/6 230/27/6 231/28/6
f 231/28/6 230/27/6 232/26/6
f 233/33/15 234/31/15 235/32/15
f 235/32/15 234/31/15 236/30/15
f 237/37/4 238/35/4 239/36/4
f 239/36/4 238/35/4 240/34/4
f 241/41/16 242/39/16 243/40/16
f 243/40/16 242/39/16 244/38/16
f 245/45/2 246/43/2 247/44/2
f 247/44/2 246/43/2 248/42/2
s 1
f 249/49/33 250/47/34 251/48/35
f 251/48/35 250/47/34 252/46/36
s 0
f 253/42/16 254/43/16 255/44/16
f 255/44/16 254/43/16 256/45/16
s 1
f 257/49/37 258/47/38 259/48/39
f 259/48/39 258/47/38 260/46/40
s 0
f 261/53/6 262/51/6 263/52/6
f 263/52/6 262/51/6 264/50/6
f 265/22/24 266/23/24 267/24/24
f 267/24/24 266/23/24 268/25/24
f 269/26/6 270/27/6 271/28/6
f 271/28/6 270/27/6 272/29/6
f 273/30/25 274/31/25 275/32/25
f 275/32/25 274/31/25 276/33/25
f 277/34/4 278/35/4 279/36/4
f 279/36/4 278/35/4 280/37/4
f 281/38/16 282/39/16 283/40/16
f 283/40/16 282/39/16 284/41/16
f 285/42/2 286/43/2 287/44/2
f 287/44/2 286/43/2 288/45/2
s 1
f 289/46/41 290/47/42 291/48/43
f 291/48/43 290/47/42 292/49/44
s 0
f 293/45/16 294/43/16 295/44/16
f 295/44/16 294/43/16 296/42/16
s 1
f 297/46/45 298/47/46 299/48/46
f 299/48/46 298/47/46 300/49/47
s 0
f 301/53/4 302/51/4 303/52/4
f 303/52/4 302/51/4 304/50/4
